<svg width="79" height="79" viewBox="0 0 79 79" fill="none" xmlns="http://www.w3.org/2000/svg">
<path fill-rule="evenodd" clip-rule="evenodd" d="M39.6617 0.21167C61.2693 0.21167 78.7857 17.7282 78.7857 39.336C78.7857 60.9433 61.2693 78.4598 39.6617 78.4598C18.0541 78.4598 0.537598 60.9433 0.537598 39.336C0.537598 17.7282 18.0541 0.21167 39.6617 0.21167Z" fill="white"/>
<path fill-rule="evenodd" clip-rule="evenodd" d="M39.6617 0.21167C61.2693 0.21167 78.7857 17.7282 78.7857 39.336C78.7857 60.9433 61.2693 78.4598 39.6617 78.4598C18.0541 78.4598 0.537598 60.9433 0.537598 39.336C0.537598 17.7282 18.0541 0.21167 39.6617 0.21167Z" fill="#E1E1E1"/>
<path d="M46 34V30H42C39.7909 30 38 31.7909 38 34V38H34V42H38V52H42V42H46V38H42V34H46Z" fill="white"/>
</svg>
